<?xml version="1.0" encoding="UTF-8"?><svg xmlns="http://www.w3.org/2000/svg" xmlns:xlink="http://www.w3.org/1999/xlink" viewBox="0 0 276.59 166.43"><defs><style>.f{fill:url(#d);}.g{fill:#1d1d1b;}.h{fill:url(#e);opacity:.7;}.i{fill:#e8e8e9;opacity:.64;}</style><linearGradient id="d" x1="22.54" y1="42.78" x2="71.89" y2="42.78" gradientTransform="matrix(1, 0, 0, 1, 0, 0)" gradientUnits="userSpaceOnUse"><stop offset="0" stop-color="#9fc372"/><stop offset=".07" stop-color="#97c499"/><stop offset=".15" stop-color="#90c5bc"/><stop offset=".21" stop-color="#8bc6d2"/><stop offset=".25" stop-color="#8ac7db"/><stop offset=".47" stop-color="#8a86b7"/><stop offset=".51" stop-color="#8a7cb2"/><stop offset=".75" stop-color="#c166a3"/><stop offset=".79" stop-color="#ca7996"/><stop offset=".88" stop-color="#dba17f"/><stop offset=".95" stop-color="#e6b970"/><stop offset="1" stop-color="#ebc36b"/></linearGradient><linearGradient id="e" x1="111.19" y1="49.65" x2="276.59" y2="49.65" xlink:href="#d"/></defs><g id="a"/><g id="b"><g id="c"><rect class="i" y=".05" width="276.59" height="166.37" rx="11.35" ry="11.35"/><path d="M46.34,26.12c.55,0,1.07,0,1.58,0,.48,0,.95-.1,1.38-.34,.62-.36,.88-.91,.85-1.61-.04-.69-.42-1.14-1.04-1.39-.43-.18-.89-.24-1.35-.24-.82,0-1.63,0-2.45,0-.14,0-.17,.05-.17,.17,0,.52,0,1.04,0,1.56v.15h-.03l-3.59-4.97h.18c2.07,0,4.14,0,6.21,0,1.06,0,2.12,.09,3.14,.42,.79,.25,1.49,.65,2.01,1.31,.37,.47,.58,1.01,.68,1.59,.12,.75,.12,1.49-.13,2.21-.33,.93-.97,1.59-1.84,2.04-.23,.12-.48,.2-.71,.31-.04,.02-.07,.03-.11,.08,.05,.01,.09,.03,.14,.04,1.25,.21,2.26,.79,2.94,1.89,.36,.58,.53,1.21,.57,1.89,.05,.8-.07,1.56-.44,2.28-.31,.6-.75,1.08-1.31,1.46-.03,.02-.05,.03-.09,.05-.04-.05-.07-.09-.1-.13-.64-.89-1.28-1.78-1.93-2.67-.06-.08-.06-.13-.02-.22,.37-.67,.29-1.5-.19-2.01-.31-.33-.72-.5-1.16-.6-.22-.05-.46-.07-.68-.12-.05,0-.11-.05-.14-.09-.64-.88-1.28-1.77-1.91-2.65l-.28-.39Z"/><path d="M35.69,32.12c-.31-.25-.58-.48-.86-.7-.9-.74-1.8-1.48-2.7-2.21-.08-.06-.11-.13-.11-.23,0-2.03,0-4.06,0-6.09q0-.21-.21-.21c-1.36,0-2.73,0-4.09,0q-.19,0-.19-.18c0-.96,0-1.92,0-2.89,0-.13,.04-.17,.17-.17,3.26,0,6.51,0,9.77,0,.09,0,.16,.02,.23,.09,.9,1.03,1.8,2.06,2.7,3.09,0,0,0,.02,.03,.05-.06,0-.11,0-.16,0-1.46,0-2.91,0-4.37,0q-.22,0-.22,.22c0,3.01,0,6.01,0,9.02v.21Z"/><path d="M60.68,29.49h.19c.94,0,1.88,0,2.82,0,.08,0,.13,0,.18,.09,.55,.97,1.11,1.95,1.67,2.92,.01,.02,.02,.05,.05,.1h-.17c-1.9,0-3.81,0-5.71,0-.14,0-.2,.04-.25,.17-.42,1.08-.85,2.16-1.27,3.24-.03,.08-.06,.14-.17,.14-1.18,0-2.35,0-3.53,0-.03,0-.05,0-.11,0l5.56-13.4c.04,.06,.06,.09,.08,.13,.62,1.08,1.23,2.15,1.85,3.23,.06,.1,.07,.18,.03,.29-.39,.98-.77,1.96-1.15,2.94-.02,.05-.04,.1-.06,.18Z"/><path d="M71.89,36.13c-.06,0-.11,0-.15,0-1.07,0-2.13,0-3.2,0-.13,0-.18-.05-.23-.16-1.89-4.56-3.78-9.11-5.67-13.67-.37-.9-.74-1.79-1.11-2.69-.02-.05-.04-.11-.07-.18,.06,0,.11,0,.16,0,.96,0,1.92,0,2.87,0,.11,0,.16,.04,.2,.13,2.05,4.71,4.1,9.42,6.15,14.13,.33,.76,.66,1.52,.99,2.28,.02,.04,.04,.09,.06,.15Z"/><path d="M51.73,35.57c-.45,.12-.88,.26-1.31,.35-.71,.16-1.43,.21-2.16,.21-2.2,0-4.4,0-6.6,0q-.19,0-.19-.19c0-3.97,0-7.94,0-11.92v-.19l4.69,5.36c-.07,0-.11,.01-.15,.01-.25,0-.49,0-.74,0-.11,0-.14,.04-.14,.14,0,1.18,0,2.36,0,3.54,0,.11,.04,.15,.15,.15,1.09,0,2.19,0,3.28,0,.24,0,.49-.06,.73-.1,.07,0,.12-.03,.18,.04,.73,.84,1.46,1.68,2.2,2.51,0,0,.02,.02,.05,.08Z"/><path d="M22.58,25.42c.06,.03,.1,.06,.14,.08,1.13,.73,2.26,1.46,3.39,2.18,.09,.06,.12,.12,.12,.23,0,2.68,0,5.37,0,8.05,0,.14-.04,.17-.18,.17-1.1,0-2.21,0-3.31,0-.18,0-.18,0-.18-.18,0-3.46,0-6.92,0-10.38,0-.04,0-.09,0-.15Z"/><path d="M32.04,31.5s.08,.04,.11,.06c1.14,.73,2.28,1.47,3.43,2.2,.08,.05,.11,.1,.11,.2,0,.67,0,1.35,0,2.02,0,.12-.04,.15-.16,.15-1.12,0-2.23,0-3.35,0-.12,0-.16-.03-.16-.15,0-1.45,0-2.91,0-4.36,0-.04,0-.07,0-.12Z"/><g><path class="g" d="M75.12,28.67h2.15c1.43,0,2.46,.43,2.46,1.71,0,.65-.38,1.29-1.2,1.5v.04c1,.17,1.56,.71,1.56,1.65,0,1.39-1.11,2.04-2.64,2.04h-2.33v-6.93Zm2.04,2.85c.97,0,1.37-.35,1.37-1s-.44-.87-1.34-.87h-.84v1.87h.81Zm.16,3.1c1.02,0,1.56-.35,1.56-1.13,0-.73-.53-1.03-1.56-1.03h-.97v2.16h.97Z"/><path class="g" d="M83.02,28.67h1.45l2.25,6.93h-1.31l-1.04-3.69c-.21-.73-.43-1.52-.62-2.29h-.04c-.2,.77-.4,1.55-.61,2.29l-1.06,3.69h-1.26l2.25-6.93Zm-.91,4.09h3.25v.97h-3.25v-.97Z"/><path class="g" d="M87.71,28.67h1.29l1.83,3.89,.63,1.48h.03c-.05-.71-.17-1.59-.17-2.36v-3.01h1.18v6.93h-1.29l-1.83-3.9-.63-1.48h-.03c.05,.74,.17,1.57,.17,2.34v3.03h-1.18v-6.93Z"/><path class="g" d="M94.16,28.67h1.25v3.14h.04l2.47-3.14h1.38l-3.89,4.88v2.05h-1.25v-6.93Zm2.11,3.39l.73-.96,2.52,4.5h-1.38l-1.87-3.54Z"/></g><rect class="f" x="22.54" y="40.18" width="49.35" height="5.19"/><path d="M237.84,153.53c-.56-.07-1.12-.11-1.67-.21-.86-.17-1.72-.37-2.58-.57-.25-.06-.38-.19-.33-.46,.18-1.03,.36-2.07,.55-3.16,.32,.13,.6,.24,.87,.35,1.58,.64,3.21,.89,4.89,.59,.46-.08,.94-.33,1.3-.63,.65-.52,.63-1.39-.01-1.92-.46-.37-.98-.65-1.5-.95-.73-.41-1.5-.75-2.21-1.2-3.2-2.04-2.3-5.49-.2-7.07,1.28-.96,2.73-1.43,4.29-1.61,1.61-.18,3.2-.02,4.77,.42,.43,.12,.53,.33,.44,.75-.16,.74-.27,1.5-.4,2.25-.03,.17-.07,.33-.1,.45-.86-.21-1.68-.48-2.51-.58-.74-.09-1.5,0-2.25,.03-.18,0-.37,.09-.54,.16-.53,.22-1,.53-1.07,1.15-.07,.6,.34,.97,.8,1.23,.85,.49,1.74,.92,2.59,1.4,.48,.27,.95,.56,1.37,.91,2.54,2.04,1.54,5.38-.25,6.82-1.38,1.11-3,1.57-4.73,1.74-.26,.02-.51,.08-.76,.12h-.78Z"/><path d="M245.82,153.16c.5-1.15,.99-2.27,1.48-3.39,1.67-3.77,3.37-7.53,5.02-11.32,.46-1.05,1.2-1.54,2.32-1.52,1.03,.01,2.06,.02,3.08,0,.32,0,.43,.13,.49,.4,1.13,5.15,2.27,10.3,3.42,15.44,.09,.41-.03,.47-.39,.47-1.03-.02-2.06-.02-3.08,0-.35,0-.49-.11-.55-.44-.1-.57-.26-1.12-.37-1.69-.05-.26-.19-.37-.44-.37-1.72,0-3.45,0-5.17,0-.28,0-.42,.12-.51,.37-.22,.6-.43,1.19-.69,1.78-.06,.15-.27,.33-.41,.34-1.36,.02-2.72,.01-4.08,0-.03,0-.05-.02-.13-.06Zm6.73-5.69c.2,.03,.34,.08,.47,.08,.98,0,1.97,0,2.95,0,.39,0,.47-.15,.39-.5-.39-1.76-.76-3.52-1.15-5.28-.03-.15-.1-.3-.15-.45h-.14l-2.38,6.15Z"/><path d="M211.08,139.03c1.81,.97,3.19,2.27,4.44,3.75,1.3,1.53,1.69,3.38,2.01,5.28l.15-.02c.07-.15,.15-.3,.21-.45,1.33-3.38,2.67-6.76,3.99-10.15,.15-.38,.34-.52,.76-.51,1.31,.03,2.63,.01,4.01,.01-.06,.18-.1,.31-.15,.44-2.22,5.13-4.44,10.25-6.64,15.38-.14,.34-.33,.45-.68,.44-1.26,0-2.52,.02-3.78,.04-.28,0-.41-.08-.49-.36-1.24-4.46-2.48-8.92-3.73-13.38-.03-.12-.05-.24-.09-.47Z"/><path d="M228.07,153.24c-.56,0-1.13-.02-1.69,0-.41,.02-.45-.17-.39-.5,.27-1.55,.51-3.1,.78-4.65,.62-3.57,1.25-7.15,1.86-10.72,.06-.35,.2-.44,.53-.44,1.11,.02,2.23,.02,3.34,0,.4,0,.51,.13,.44,.51-.42,2.41-.82,4.83-1.23,7.24-.45,2.63-.91,5.25-1.36,7.87-.12,.69-.11,.69-.8,.69-.49,0-.98,0-1.48,0Z"/><path class="g" d="M217.08,146.23l-1.47-7.8c-.24-1.51-1.44-1.51-1.44-1.51h-7.96v.26c1.19,0,4.81,1.9,4.81,1.9l2.87,2.1,3.19,5.05Z"/><path class="h" d="M111.19,.05l165.4,99.25V15.02c0-1.3-1.18-7.24-4.18-9.91l-2.18-2.1c-5.01-3.67-10.95-2.96-13.74-2.96H111.19Z"/><path d="M26.44,24.68c-.45-.37-.87-.71-1.29-1.06-.81-.67-1.62-1.34-2.44-2-.12-.1-.18-.21-.17-.37,.01-.54,0-1.09,0-1.63,0-.14,.03-.19,.18-.19,1.19,0,2.38,0,3.58,0,.1,0,.16,0,.16,.14,0,1.67,0,3.35,0,5.02,0,.02,0,.04,0,.09Z"/></g></g></svg>