<?xml version="1.0" encoding="UTF-8"?><svg xmlns="http://www.w3.org/2000/svg" viewBox="0 0 55.46 16.91"><defs><style>.d{fill:#1d1d1b;}</style></defs><g id="a"/><g id="b"><g id="c"><path d="M31.63,16.91c-.56-.07-1.12-.11-1.67-.21-.86-.17-1.72-.37-2.58-.57-.25-.06-.38-.19-.33-.46,.18-1.03,.36-2.07,.55-3.16,.32,.13,.6,.24,.87,.35,1.58,.64,3.21,.89,4.89,.59,.46-.08,.94-.33,1.3-.63,.65-.52,.63-1.39-.01-1.92-.46-.37-.98-.65-1.5-.95-.73-.41-1.5-.75-2.21-1.2-3.2-2.04-2.3-5.49-.2-7.07,1.28-.96,2.73-1.43,4.29-1.61,1.61-.18,3.2-.02,4.77,.42,.43,.12,.53,.33,.44,.75-.16,.74-.27,1.5-.4,2.25-.03,.17-.07,.33-.1,.45-.86-.21-1.68-.48-2.51-.58-.74-.09-1.5,0-2.25,.03-.18,0-.37,.09-.54,.16-.53,.22-1,.53-1.07,1.15-.07,.6,.34,.97,.8,1.23,.85,.49,1.74,.92,2.59,1.4,.48,.27,.95,.56,1.37,.91,2.54,2.04,1.54,5.38-.25,6.82-1.38,1.11-3,1.57-4.73,1.74-.26,.02-.51,.08-.76,.12h-.78Z"/><path d="M39.61,16.54c.5-1.15,.99-2.27,1.48-3.39,1.67-3.77,3.37-7.53,5.02-11.32,.46-1.05,1.2-1.54,2.32-1.52,1.03,.01,2.06,.02,3.08,0,.32,0,.43,.13,.49,.4,1.13,5.15,2.27,10.3,3.42,15.44,.09,.41-.03,.47-.39,.47-1.03-.02-2.06-.02-3.08,0-.35,0-.49-.11-.55-.44-.1-.57-.26-1.12-.37-1.69-.05-.26-.19-.37-.44-.37-1.72,0-3.45,0-5.17,0-.28,0-.42,.12-.51,.37-.22,.6-.43,1.19-.69,1.78-.06,.15-.27,.33-.41,.34-1.36,.02-2.72,.01-4.08,0-.03,0-.05-.02-.13-.06Zm6.73-5.69c.2,.03,.34,.08,.47,.08,.98,0,1.97,0,2.95,0,.39,0,.47-.15,.39-.5-.39-1.76-.76-3.52-1.15-5.28-.03-.15-.1-.3-.15-.45h-.14l-2.38,6.15Z"/><path d="M4.87,2.41c1.81,.97,3.19,2.27,4.44,3.75,1.3,1.53,1.69,3.38,2.01,5.28l.15-.02c.07-.15,.15-.3,.21-.45,1.33-3.38,2.67-6.76,3.99-10.15,.15-.38,.34-.52,.76-.51,1.31,.03,2.63,.01,4.01,.01-.06,.18-.1,.31-.15,.44-2.22,5.13-4.44,10.25-6.64,15.38-.14,.34-.33,.45-.68,.44-1.26,0-2.52,.02-3.78,.04-.28,0-.41-.08-.49-.36-1.24-4.46-2.48-8.92-3.73-13.38-.03-.12-.05-.24-.09-.47Z"/><path d="M21.86,16.61c-.56,0-1.13-.02-1.69,0-.41,.02-.45-.17-.39-.5,.27-1.55,.51-3.1,.78-4.65,.62-3.57,1.25-7.15,1.86-10.72,.06-.35,.2-.44,.53-.44,1.11,.02,2.23,.02,3.34,0,.4,0,.51,.13,.44,.51-.42,2.41-.82,4.83-1.23,7.24-.45,2.63-.91,5.25-1.36,7.87-.12,.69-.11,.69-.8,.69-.49,0-.98,0-1.48,0Z"/><path class="d" d="M10.87,9.61l-1.47-7.8c-.24-1.51-1.44-1.51-1.44-1.51H0v.26c1.19,0,4.81,1.9,4.81,1.9l2.87,2.1,3.19,5.05Z"/></g></g></svg>