<?xml version="1.0" encoding="UTF-8"?><svg xmlns="http://www.w3.org/2000/svg" xmlns:xlink="http://www.w3.org/1999/xlink" viewBox="0 0 175.01 38.76"><defs><style>.e{fill:url(#d);}.f{fill:#1d1d1b;}</style><linearGradient id="d" x1="0" y1="34.88" x2="73.75" y2="34.88" gradientTransform="matrix(1, 0, 0, 1, 0, 0)" gradientUnits="userSpaceOnUse"><stop offset="0" stop-color="#9fc372"/><stop offset=".07" stop-color="#97c499"/><stop offset=".15" stop-color="#90c5bc"/><stop offset=".21" stop-color="#8bc6d2"/><stop offset=".25" stop-color="#8ac7db"/><stop offset=".47" stop-color="#8a86b7"/><stop offset=".51" stop-color="#8a7cb2"/><stop offset=".75" stop-color="#c166a3"/><stop offset=".79" stop-color="#ca7996"/><stop offset=".88" stop-color="#dba17f"/><stop offset=".95" stop-color="#e6b970"/><stop offset="1" stop-color="#ebc36b"/></linearGradient></defs><g id="a"/><g id="b"><g id="c"><g><g><path class="f" d="M78.57,13.8h3.22c2.14,0,3.68,.65,3.68,2.55,0,.98-.57,1.93-1.79,2.25v.06c1.5,.26,2.33,1.06,2.33,2.46,0,2.07-1.66,3.04-3.95,3.04h-3.48V13.8Zm3.05,4.26c1.45,0,2.04-.52,2.04-1.49s-.66-1.3-2-1.3h-1.26v2.79h1.22Zm.24,4.63c1.52,0,2.33-.52,2.33-1.69,0-1.09-.79-1.54-2.33-1.54h-1.46v3.23h1.46Z"/><path class="f" d="M90.38,13.8h2.17l3.36,10.37h-1.96l-1.56-5.51c-.31-1.09-.64-2.27-.93-3.42h-.06c-.29,1.15-.6,2.32-.91,3.42l-1.58,5.51h-1.89l3.36-10.37Zm-1.36,6.11h4.86v1.46h-4.86v-1.46Z"/><path class="f" d="M97.4,13.8h1.94l2.74,5.82,.94,2.21h.04c-.08-1.06-.25-2.37-.25-3.53v-4.51h1.76v10.37h-1.94l-2.74-5.83-.94-2.21h-.04c.08,1.1,.25,2.35,.25,3.5v4.54h-1.76V13.8Z"/><path class="f" d="M107.03,13.8h1.87v4.7h.05l3.69-4.7h2.07l-5.81,7.3v3.06h-1.87V13.8Zm3.16,5.08l1.09-1.44,3.76,6.73h-2.06l-2.8-5.29Z"/></g><g><g><path d="M35.57,9.99c.83,0,1.6,.01,2.37,0,.72-.01,1.42-.15,2.06-.51,.93-.53,1.32-1.36,1.26-2.41-.06-1.03-.62-1.7-1.56-2.08-.65-.26-1.33-.36-2.02-.37-1.22-.01-2.44,0-3.66,0-.2,0-.25,.07-.25,.26,0,.78,0,1.55,0,2.33v.22l-.05,.02L28.37,0h.27c3.09,0,6.19,0,9.28,0,1.59,0,3.17,.14,4.69,.63,1.18,.38,2.22,.97,3,1.96,.55,.7,.87,1.5,1.01,2.38,.18,1.11,.18,2.22-.2,3.3-.49,1.4-1.45,2.38-2.75,3.05-.34,.18-.71,.31-1.07,.46-.05,.02-.11,.05-.17,.12,.07,.02,.14,.05,.21,.06,1.87,.31,3.38,1.18,4.39,2.82,.53,.86,.79,1.81,.85,2.82,.07,1.19-.11,2.33-.66,3.4-.46,.9-1.13,1.61-1.95,2.19-.04,.03-.08,.05-.14,.08-.05-.07-.1-.13-.15-.19-.96-1.33-1.92-2.66-2.88-3.99-.08-.11-.09-.2-.02-.32,.55-1,.43-2.24-.28-3.01-.47-.5-1.08-.75-1.73-.9-.34-.08-.68-.11-1.02-.18-.07-.01-.16-.07-.2-.13-.96-1.32-1.91-2.64-2.86-3.96-.13-.18-.26-.36-.42-.59Z"/><path d="M19.65,18.95c-.46-.38-.87-.71-1.28-1.05-1.34-1.1-2.68-2.21-4.03-3.31-.12-.1-.16-.19-.16-.34,0-3.03,0-6.06,0-9.1q0-.32-.31-.32c-2.04,0-4.08,0-6.11,0q-.28,0-.28-.27c0-1.44,0-2.88,0-4.31C7.47,.05,7.53,0,7.72,0c4.87,0,9.73,0,14.6,0,.14,0,.24,.03,.34,.14,1.34,1.54,2.69,3.08,4.04,4.62,0,0,.01,.02,.04,.07-.09,0-.16,.01-.24,.01-2.17,0-4.35,0-6.52,0q-.32,0-.32,.32c0,4.49,0,8.98,0,13.47v.32Z"/><path d="M57,15.03h.28c1.4,0,2.81,0,4.21,0,.12,0,.2,.01,.27,.13,.83,1.46,1.66,2.91,2.49,4.36,.02,.03,.03,.07,.07,.15h-.26c-2.84,0-5.69,0-8.53,0-.2,0-.29,.06-.37,.25-.63,1.62-1.27,3.23-1.9,4.84-.05,.12-.09,.21-.25,.21-1.76,0-3.52,0-5.28,0-.04,0-.08,0-.16-.01L55.89,4.92c.05,.09,.09,.14,.12,.2,.92,1.61,1.84,3.22,2.76,4.82,.09,.15,.1,.27,.04,.44-.58,1.46-1.15,2.92-1.72,4.39-.03,.07-.05,.15-.09,.27Z"/><path d="M73.75,24.95c-.09,0-.16,0-.23,0-1.59,0-3.19,0-4.78,0-.19,0-.27-.07-.34-.24-2.82-6.81-5.65-13.62-8.47-20.42-.55-1.34-1.11-2.68-1.66-4.01-.03-.08-.06-.16-.1-.27,.09,0,.17-.01,.24-.01,1.43,0,2.86,0,4.29,0,.16,0,.24,.05,.3,.2,3.06,7.04,6.12,14.08,9.19,21.12,.49,1.13,.99,2.27,1.48,3.4,.03,.07,.05,.13,.09,.22Z"/><path d="M43.63,24.12c-.67,.18-1.31,.38-1.96,.53-1.06,.24-2.14,.31-3.22,.31-3.29,0-6.57,0-9.86,0q-.29,0-.29-.29c0-5.94,0-11.87,0-17.81v-.28l7.01,8.01c-.1,0-.16,.02-.22,.02-.37,0-.74,0-1.1,0-.16,0-.21,.06-.21,.21,0,1.76,0,3.53,0,5.29,0,.17,.06,.22,.22,.22,1.64,0,3.27,0,4.91,0,.36,0,.73-.09,1.09-.14,.1-.01,.18-.04,.27,.06,1.09,1.25,2.19,2.5,3.28,3.76,.01,.01,.02,.03,.08,.11Z"/><path d="M.07,8.94c.09,.05,.15,.09,.21,.12,1.69,1.09,3.38,2.17,5.07,3.26,.14,.09,.19,.18,.19,.34,0,4.01,0,8.02,0,12.04,0,.21-.06,.26-.26,.26-1.65,0-3.3,0-4.95,0-.27,0-.27,0-.27-.27,0-5.17,0-10.34,0-15.51,0-.07,0-.13,.01-.23Z"/><path d="M14.19,18.03c.07,.04,.12,.07,.17,.1,1.71,1.1,3.41,2.2,5.12,3.29,.11,.07,.17,.15,.17,.29,0,1.01,0,2.02,0,3.02,0,.19-.06,.23-.23,.23-1.67,0-3.34,0-5.01,0-.18,0-.23-.05-.23-.23,0-2.17,0-4.35,0-6.52,0-.05,0-.1,.01-.18Z"/><path d="M5.52,7.35c-.62-.51-1.22-1-1.81-1.49-1.14-.93-2.27-1.87-3.41-2.8-.17-.14-.25-.29-.24-.52,.01-.76,.01-1.53,0-2.29C.05,.07,.1,0,.31,0,1.97,0,3.64,0,5.31,0c.14,0,.22,.01,.22,.19,0,2.34,0,4.69,0,7.03,0,.03,0,.05,0,.12Z"/></g><rect class="e" y="31" width="73.75" height="7.75"/></g></g></g></g></svg>