<?xml version="1.0" encoding="UTF-8"?><svg xmlns="http://www.w3.org/2000/svg" xmlns:xlink="http://www.w3.org/1999/xlink" viewBox="0 0 34.58 38.66"><defs><style>.e{fill:url(#d);}</style><linearGradient id="d" x1="0" y1="36.01" x2="34.58" y2="36.01" gradientTransform="matrix(1, 0, 0, 1, 0, 0)" gradientUnits="userSpaceOnUse"><stop offset="0" stop-color="#9fc372"/><stop offset=".07" stop-color="#97c499"/><stop offset=".15" stop-color="#90c5bc"/><stop offset=".21" stop-color="#8bc6d2"/><stop offset=".25" stop-color="#8ac7db"/><stop offset=".47" stop-color="#8a86b7"/><stop offset=".51" stop-color="#8a7cb2"/><stop offset=".75" stop-color="#c166a3"/><stop offset=".79" stop-color="#ca7996"/><stop offset=".88" stop-color="#dba17f"/><stop offset=".95" stop-color="#e6b970"/><stop offset="1" stop-color="#ebc36b"/></linearGradient></defs><g id="a"/><g id="b"><g id="c"><path d="M19.82,11.96c.99,0,1.91,.01,2.83,0,.86-.02,1.7-.18,2.46-.61,1.12-.64,1.58-1.63,1.51-2.88-.07-1.23-.75-2.03-1.86-2.49-.77-.32-1.59-.43-2.41-.44-1.46-.02-2.92,0-4.38-.01-.24,0-.3,.08-.3,.31,0,.93,0,1.86,0,2.79v.26l-.06,.02L11.21,0h.32c3.7,0,7.41,0,11.11,0,1.9,0,3.79,.16,5.62,.75,1.41,.45,2.66,1.16,3.59,2.35,.66,.84,1.04,1.8,1.21,2.85,.22,1.33,.22,2.66-.24,3.95-.59,1.67-1.74,2.85-3.29,3.64-.41,.21-.85,.37-1.28,.55-.06,.03-.13,.06-.2,.14,.08,.02,.17,.06,.25,.07,2.23,.37,4.04,1.41,5.25,3.37,.64,1.03,.95,2.17,1.02,3.38,.08,1.42-.13,2.79-.79,4.07-.55,1.08-1.35,1.93-2.34,2.62-.05,.03-.1,.06-.16,.1-.06-.08-.12-.15-.18-.23-1.15-1.59-2.29-3.19-3.45-4.78-.1-.14-.11-.23-.03-.39,.66-1.2,.52-2.69-.34-3.6-.56-.6-1.3-.89-2.07-1.08-.4-.1-.82-.13-1.22-.21-.09-.02-.19-.08-.24-.16-1.14-1.58-2.28-3.16-3.42-4.74-.16-.22-.31-.43-.5-.7Z"/><path d="M29.47,28.86c-.81,.22-1.57,.46-2.34,.63-1.27,.29-2.56,.37-3.86,.37-3.93,0-7.87,0-11.8,0q-.35,0-.35-.34c0-7.1,0-14.21,0-21.31v-.33c2.82,3.22,5.58,6.38,8.39,9.58-.12,0-.19,.02-.27,.02-.44,0-.88,0-1.32,0-.19,0-.25,.07-.25,.26,0,2.11,0,4.22,0,6.34,0,.2,.07,.27,.27,.27,1.96,0,3.92,0,5.87-.01,.44,0,.87-.11,1.3-.17,.12-.02,.22-.05,.33,.08,1.3,1.5,2.62,3,3.93,4.49,.02,.02,.03,.04,.1,.14Z"/><path d="M.08,10.7c.11,.06,.18,.1,.25,.15,2.02,1.3,4.04,2.6,6.07,3.9,.16,.1,.22,.22,.22,.41,0,4.8,0,9.6,0,14.4,0,.26-.08,.31-.32,.31-1.97,0-3.95,0-5.92,0-.32,0-.32,0-.32-.33,0-6.19,0-12.37,0-18.56,0-.08,0-.16,.01-.28Z"/><path d="M6.61,8.8c-.75-.61-1.46-1.2-2.17-1.78C3.08,5.9,1.72,4.78,.36,3.67c-.21-.17-.3-.34-.29-.62,.02-.91,.01-1.83,0-2.74C.06,.08,.12,0,.37,0c2,0,4,0,5.99,0,.17,0,.27,.01,.27,.23,0,2.8,0,5.61,0,8.41,0,.03,0,.06-.01,.15Z"/><rect class="e" y="33.36" width="34.58" height="5.3"/></g></g></svg>