<?xml version="1.0" encoding="UTF-8"?><svg id="Layer_1" xmlns="http://www.w3.org/2000/svg" xmlns:xlink="http://www.w3.org/1999/xlink" viewBox="0 0 452.8 509.16"><defs><style>.cls-1{stroke:url(#linear-gradient-4);}.cls-1,.cls-2{stroke-width:2px;}.cls-1,.cls-2,.cls-3,.cls-4,.cls-5,.cls-6,.cls-7,.cls-8,.cls-9,.cls-10,.cls-11,.cls-12,.cls-13{stroke-miterlimit:10;}.cls-1,.cls-2,.cls-3,.cls-4,.cls-6,.cls-7,.cls-8,.cls-9,.cls-10,.cls-11,.cls-12,.cls-13{fill:none;}.cls-2{stroke:url(#linear-gradient-6);}.cls-14{letter-spacing:-.01em;}.cls-15{letter-spacing:-.01em;}.cls-16{letter-spacing:-.01em;}.cls-17{letter-spacing:-.01em;}.cls-18{letter-spacing:-.01em;}.cls-19{letter-spacing:0em;}.cls-3{stroke:url(#linear-gradient-8);}.cls-4{stroke:url(#linear-gradient-7);}.cls-20{letter-spacing:-.01em;}.cls-21{letter-spacing:-.02em;}.cls-22{letter-spacing:-.01em;}.cls-23{letter-spacing:-.02em;}.cls-24{fill:url(#linear-gradient);}.cls-25{letter-spacing:0em;}.cls-26{letter-spacing:0em;}.cls-27{letter-spacing:-.02em;}.cls-28{letter-spacing:-.02em;}.cls-29{letter-spacing:-.03em;}.cls-30{font-family:SourceSansRoman-Semibold, 'Source Sans Variable';font-size:18.15px;font-variation-settings:'wght' 600;font-weight:700;}.cls-30,.cls-31,.cls-32,.cls-33{fill:#545454;}.cls-34{letter-spacing:-.01em;}.cls-5,.cls-7,.cls-10,.cls-11{stroke:#1d1d1b;}.cls-35{fill:#f9cf7a;}.cls-36{fill:#fff;}.cls-37{fill:#e8e8e9;}.cls-38{fill:#efc965;}.cls-39{fill:#9cd1f2;}.cls-40{fill:#b6b6b6;}.cls-41{fill:#bdd88d;}.cls-42{fill:#de9ae2;}.cls-43{fill:#1d1d1b;}.cls-44{letter-spacing:-.03em;}.cls-45{letter-spacing:-.03em;}.cls-46{letter-spacing:-.03em;}.cls-47{letter-spacing:-.01em;}.cls-48{letter-spacing:-.06em;}.cls-49{letter-spacing:0em;}.cls-6{opacity:.43;stroke:#000;}.cls-6,.cls-11,.cls-12,.cls-13{stroke-width:.5px;}.cls-50{letter-spacing:-.03em;}.cls-51{letter-spacing:-.03em;}.cls-52{font-size:4.48px;}.cls-52,.cls-53,.cls-54,.cls-55,.cls-56,.cls-57,.cls-58{font-family:FiraSans-Medium, 'Fira Sans';}.cls-52,.cls-56{opacity:.63;}.cls-53{font-size:8.56px;}.cls-31{font-size:8.47px;}.cls-31,.cls-32,.cls-33{font-family:FiraSans-Regular, 'Fira Sans';}.cls-59{font-family:FiraSans-Light, 'Fira Sans';font-size:3.2px;}.cls-54{font-size:7.68px;}.cls-32{font-size:3.88px;}.cls-60{letter-spacing:0em;}.cls-61{letter-spacing:0em;}.cls-7{opacity:.23;stroke-width:.25px;}.cls-62{letter-spacing:0em;}.cls-63{letter-spacing:0em;}.cls-55{font-size:4.66px;}.cls-64{fill:url(#linear-gradient-9);}.cls-65{fill:url(#linear-gradient-3);}.cls-66{fill:url(#linear-gradient-2);}.cls-67{fill:url(#linear-gradient-5);}.cls-68{letter-spacing:0em;}.cls-56{font-size:5px;}.cls-33{font-size:3.39px;}.cls-8{stroke:url(#linear-gradient-11);}.cls-9{stroke:url(#linear-gradient-10);}.cls-69{fill:url(#radial-gradient);}.cls-69,.cls-70{opacity:.81;}.cls-71{letter-spacing:0em;}.cls-72{letter-spacing:0em;}.cls-73{letter-spacing:-.02em;}.cls-10{opacity:.22;}.cls-74{letter-spacing:0em;}.cls-75{letter-spacing:0em;}.cls-76{letter-spacing:0em;}.cls-57{font-size:5.82px;}.cls-77{letter-spacing:-.02em;}.cls-78{letter-spacing:-.02em;}.cls-79{letter-spacing:-.02em;}.cls-80{letter-spacing:-.02em;}.cls-81{letter-spacing:0em;}.cls-82{letter-spacing:-.02em;}.cls-83{letter-spacing:-.02em;}.cls-70,.cls-84{fill:#f2f2f2;}.cls-58{font-size:9.08px;}.cls-84{opacity:.64;}.cls-12{stroke:#f0ca62;}.cls-13{stroke:#545454;}</style><radialGradient id="radial-gradient" cx="226.4" cy="254.58" fx="226.4" fy="254.58" r="240.9" gradientTransform="matrix(1, 0, 0, 1, 0, 0)" gradientUnits="userSpaceOnUse"><stop offset="0" stop-color="#001e54"/><stop offset=".11" stop-color="#2a4370" stop-opacity=".95"/><stop offset=".33" stop-color="#7586a3" stop-opacity=".86"/><stop offset=".54" stop-color="#b1baca" stop-opacity=".79"/><stop offset=".73" stop-color="#dbdfe7" stop-opacity=".74"/><stop offset=".89" stop-color="#f5f6f8" stop-opacity=".71"/><stop offset="1" stop-color="#fff" stop-opacity=".7"/></radialGradient><linearGradient id="linear-gradient" x1="159.04" y1="5583.03" x2="334.82" y2="5583.03" gradientTransform="translate(0 5993.05) scale(1 -1)" gradientUnits="userSpaceOnUse"><stop offset="0" stop-color="#9fc372"/><stop offset=".07" stop-color="#97c499"/><stop offset=".15" stop-color="#90c5bc"/><stop offset=".21" stop-color="#8bc6d2"/><stop offset=".25" stop-color="#8ac7db"/><stop offset=".47" stop-color="#8a86b7"/><stop offset=".51" stop-color="#8a7cb2"/><stop offset=".75" stop-color="#c166a3"/><stop offset=".79" stop-color="#ca7996"/><stop offset=".88" stop-color="#dba17f"/><stop offset=".95" stop-color="#e6b970"/><stop offset="1" stop-color="#ebc36b"/></linearGradient><linearGradient id="linear-gradient-2" x1="192.76" y1="238.86" x2="211.9" y2="238.86" gradientTransform="matrix(1, 0, 0, 1, 0, 0)" xlink:href="#linear-gradient"/><linearGradient id="linear-gradient-3" x1="308.1" y1="238.89" x2="327.24" y2="238.89" gradientTransform="matrix(1, 0, 0, 1, 0, 0)" xlink:href="#linear-gradient"/><linearGradient id="linear-gradient-4" x1="3465.46" y1="418.24" x2="3465.46" y2="361.84" gradientTransform="translate(-86.96 3600.46) rotate(-90)" xlink:href="#linear-gradient"/><linearGradient id="linear-gradient-5" x1="215.63" y1="106.56" x2="280.69" y2="106.56" gradientTransform="matrix(1, 0, 0, 1, 0, 0)" xlink:href="#linear-gradient"/><linearGradient id="linear-gradient-6" x1="793.85" y1="224.67" x2="793.85" y2="51.59" gradientTransform="translate(837.2 160.92) rotate(-180) scale(1 -1)" xlink:href="#linear-gradient"/><linearGradient id="linear-gradient-7" x1="2004.76" y1="1487.14" x2="2019.94" y2="1487.14" gradientTransform="translate(-1399.08 2397.19) rotate(-90)" xlink:href="#linear-gradient"/><linearGradient id="linear-gradient-8" x1="-2543.86" y1="1487.14" x2="-2528.67" y2="1487.14" gradientTransform="translate(-1399.08 2921.1) rotate(90) scale(1 -1)" xlink:href="#linear-gradient"/><linearGradient id="linear-gradient-9" x1="202.59" y1="463.94" x2="305.43" y2="463.94" gradientTransform="matrix(1, 0, 0, 1, 0, 0)" xlink:href="#linear-gradient"/><linearGradient id="linear-gradient-10" x1="2271.81" y1="1760.55" x2="2286.99" y2="1760.55" gradientTransform="translate(-1399.08 2397.19) rotate(-90)" xlink:href="#linear-gradient"/><linearGradient id="linear-gradient-11" x1="-2810.91" y1="1760.55" x2="-2795.72" y2="1760.55" gradientTransform="translate(-1399.08 2921.1) rotate(90) scale(1 -1)" xlink:href="#linear-gradient"/></defs><rect class="cls-69" width="452.8" height="509.16"/><path class="cls-36" d="M276.77,444.41h-59.23c-36.05,0-65.28-29.23-65.28-65.28V125.71c0-36.05,6.78-65.48,65.28-65.28h59.23c58.05-3,65.28,29.23,65.28,65.28v253.42c0,36.05-29.23,65.28-65.28,65.28Z"/><rect class="cls-37" x="159.04" y="410.02" width="177.76" height="25.95"/><path d="M227.23,432.82c-2.17,0-4.35,0-6.52,0-1.17,0-1.77-.74-1.5-1.9,.43-1.81,1.58-3.04,3.22-3.84,1.7-.83,3.54-1,5.4-.94,1.27,.05,2.52,.22,3.7,.72,1.96,.83,3.34,2.17,3.71,4.35,.16,.92-.42,1.6-1.37,1.6-2.22,0-4.43,0-6.65,0Zm6.75-1.36c-.09-.31-.13-.6-.24-.86-.53-1.28-1.54-2.04-2.79-2.54-.83-.33-1.69-.48-2.58-.55-1.71-.14-3.4-.04-5.01,.61-1.29,.52-2.26,1.38-2.73,2.72-.07,.19-.08,.39-.13,.61h13.48Z"/><path d="M306.4,433.23c-.87,0-1.56-.7-1.54-1.57,.01-.85,.7-1.53,1.56-1.53,.88,0,1.56,.69,1.56,1.56,0,.87-.69,1.55-1.57,1.54Z"/><path class="cls-24" d="M161.97,408.55h169.91c1.62,0,2.93,1.31,2.93,2.93H159.04c0-1.62,1.31-2.93,2.93-2.93Z"/><g><path class="cls-43" d="M179.82,122.97h2.14c1.33,0,2.36,.47,2.36,1.9s-1.03,2-2.36,2h-.99v2.5h-1.14v-6.39Zm2.02,2.99c.88,0,1.35-.37,1.35-1.09s-.48-.99-1.35-.99h-.88v2.08h.88Zm.73-.08l2,3.48h-1.28l-1.54-2.8,.83-.68Z"/><path class="cls-43" d="M185.29,126.14c0-2.1,1.03-3.29,2.52-3.29s2.51,1.18,2.51,3.29-1.03,3.34-2.51,3.34-2.52-1.2-2.52-3.34Zm3.86,0c0-1.47-.53-2.3-1.34-2.3s-1.34,.83-1.34,2.3,.53,2.35,1.34,2.35,1.34-.85,1.34-2.35Z"/><path class="cls-43" d="M191.58,122.97h1.98c1.32,0,2.27,.4,2.27,1.57,0,.6-.35,1.19-1.11,1.39v.04c.92,.16,1.44,.65,1.44,1.52,0,1.28-1.02,1.88-2.43,1.88h-2.15v-6.39Zm1.88,2.63c.89,0,1.26-.32,1.26-.92s-.41-.8-1.23-.8h-.78v1.72h.75Zm.15,2.86c.94,0,1.44-.32,1.44-1.05,0-.67-.48-.95-1.44-.95h-.9v2h.9Z"/><path class="cls-43" d="M197.62,122.97h4.1v.96h-2.96v1.64h2.51v.96h-2.51v1.89h3.06v.96h-4.2v-6.39Z"/><path class="cls-43" d="M203.3,122.97h2.14c1.33,0,2.36,.47,2.36,1.9s-1.03,2-2.36,2h-.99v2.5h-1.14v-6.39Zm2.02,2.99c.88,0,1.35-.37,1.35-1.09s-.48-.99-1.35-.99h-.88v2.08h.88Zm.73-.08l2,3.48h-1.28l-1.54-2.8,.83-.68Z"/><path class="cls-43" d="M210.71,123.93h-2.01v-.96h5.17v.96h-2.01v5.44h-1.14v-5.44Z"/><path class="cls-43" d="M214.64,126.14c0-2.1,1.03-3.29,2.52-3.29s2.51,1.18,2.51,3.29-1.03,3.34-2.51,3.34-2.52-1.2-2.52-3.34Zm3.86,0c0-1.47-.53-2.3-1.34-2.3s-1.34,.83-1.34,2.3,.53,2.35,1.34,2.35,1.34-.85,1.34-2.35Z"/><path class="cls-43" d="M226.54,126.19c0-2.09,1.27-3.33,2.96-3.33,.79,0,1.43,.38,1.83,.8l-.63,.71c-.32-.32-.7-.52-1.2-.52-1.06,0-1.79,.88-1.79,2.31s.73,2.34,1.82,2.34c.52,0,.94-.24,1.29-.63l.63,.69c-.51,.6-1.19,.93-2.04,.93-1.58,0-2.88-1.17-2.88-3.3Z"/><path class="cls-43" d="M234.09,122.97h1.34l2.07,6.39h-1.21l-.96-3.4c-.19-.67-.4-1.4-.57-2.11h-.04c-.18,.71-.37,1.43-.56,2.11l-.97,3.4h-1.16l2.07-6.39Zm-.84,3.77h3v.9h-3v-.9Z"/><path class="cls-43" d="M238.51,122.97h2.14c1.33,0,2.36,.47,2.36,1.9s-1.03,2-2.36,2h-.99v2.5h-1.14v-6.39Zm2.02,2.99c.88,0,1.35-.37,1.35-1.09s-.48-.99-1.35-.99h-.88v2.08h.88Zm.73-.08l2,3.48h-1.28l-1.54-2.8,.83-.68Z"/><path class="cls-43" d="M244.74,122.97h1.13v5.44h3v.96h-4.13v-6.39Z"/><path class="cls-43" d="M249.85,126.14c0-2.1,1.03-3.29,2.52-3.29s2.51,1.18,2.51,3.29-1.03,3.34-2.51,3.34-2.52-1.2-2.52-3.34Zm3.86,0c0-1.47-.53-2.3-1.34-2.3s-1.34,.83-1.34,2.3,.53,2.35,1.34,2.35,1.34-.85,1.34-2.35Z"/><path class="cls-43" d="M255.87,128.55l.66-.78c.49,.44,1.11,.73,1.78,.73,.74,0,1.14-.33,1.14-.77,0-.57-.44-.72-1.06-.99l-.88-.38c-.67-.26-1.37-.76-1.37-1.7,0-1.02,.92-1.8,2.22-1.8,.78,0,1.52,.3,2.05,.81l-.58,.72c-.44-.35-.88-.55-1.52-.55-.61,0-1.02,.27-1.02,.75,0,.5,.51,.68,1.09,.9l.84,.37c.81,.31,1.39,.8,1.39,1.72,0,1.04-.88,1.9-2.37,1.9-.9,0-1.75-.34-2.38-.93Z"/></g><text class="cls-33" transform="translate(254.44 189.65)"><tspan x="0" y="0">Últimos m</tspan><tspan class="cls-62" x="15.69" y="0">o</tspan><tspan x="17.65" y="0">vimien</tspan><tspan class="cls-47" x="27.97" y="0">t</tspan><tspan x="29.14" y="0">os</tspan></text><text class="cls-33" transform="translate(295.72 189.65)"><tspan class="cls-44" x="0" y="0">T</tspan><tspan class="cls-51" x="1.65" y="0">r</tspan><tspan x="2.84" y="0">ans</tspan><tspan class="cls-16" x="8.25" y="0">f</tspan><tspan x="9.35" y="0">erir</tspan></text><rect class="cls-84" x="177.53" y="269.52" width="143.32" height="128.3" rx="11.3" ry="11.3"/><path d="M201.99,232.4c.22,0,.42,0,.61,0,.19,0,.37-.04,.53-.13,.24-.14,.34-.35,.33-.62-.01-.27-.16-.44-.4-.54-.17-.07-.34-.09-.52-.09-.32,0-.63,0-.95,0-.05,0-.07,.02-.07,.07,0,.2,0,.4,0,.6v.06h-.01l-1.39-1.93h.07c.8,0,1.61,0,2.41,0,.41,0,.82,.04,1.22,.16,.31,.1,.58,.25,.78,.51,.14,.18,.23,.39,.26,.62,.05,.29,.05,.58-.05,.86-.13,.36-.38,.62-.71,.79-.09,.05-.18,.08-.28,.12-.01,0-.03,.01-.04,.03,.02,0,.04,.01,.05,.02,.48,.08,.88,.31,1.14,.73,.14,.22,.21,.47,.22,.73,.02,.31-.03,.61-.17,.88-.12,.23-.29,.42-.51,.57,0,0-.02,.01-.04,.02-.01-.02-.03-.03-.04-.05-.25-.35-.5-.69-.75-1.04-.02-.03-.02-.05,0-.08,.14-.26,.11-.58-.07-.78-.12-.13-.28-.19-.45-.23-.09-.02-.18-.03-.27-.05-.02,0-.04-.02-.05-.03-.25-.34-.49-.69-.74-1.03l-.11-.15Z"/><path d="M197.86,234.73c-.12-.1-.23-.19-.33-.27-.35-.29-.7-.57-1.05-.86-.03-.03-.04-.05-.04-.09,0-.79,0-1.57,0-2.36q0-.08-.08-.08c-.53,0-1.06,0-1.59,0q-.07,0-.07-.07c0-.37,0-.75,0-1.12,0-.05,.02-.07,.07-.07,1.26,0,2.53,0,3.79,0,.04,0,.06,0,.09,.04,.35,.4,.7,.8,1.05,1.2v.02s-.03,0-.05,0c-.56,0-1.13,0-1.69,0q-.08,0-.08,.08c0,1.17,0,2.33,0,3.5v.08Z"/><path d="M207.56,233.71h.07c.36,0,.73,0,1.09,0,.03,0,.05,0,.07,.03,.21,.38,.43,.76,.65,1.13,0,0,0,.02,.02,.04h-.07c-.74,0-1.48,0-2.21,0-.05,0-.08,.02-.1,.07-.16,.42-.33,.84-.49,1.26-.01,.03-.02,.05-.07,.05-.46,0-.91,0-1.37,0-.01,0-.02,0-.04,0l2.16-5.2s.02,.04,.03,.05c.24,.42,.48,.84,.72,1.25,.02,.04,.03,.07,0,.11-.15,.38-.3,.76-.45,1.14,0,.02-.01,.04-.02,.07Z"/><path d="M211.9,236.28s-.04,0-.06,0c-.41,0-.83,0-1.24,0-.05,0-.07-.02-.09-.06-.73-1.77-1.47-3.53-2.2-5.3-.14-.35-.29-.69-.43-1.04,0-.02-.02-.04-.03-.07,.02,0,.04,0,.06,0,.37,0,.74,0,1.11,0,.04,0,.06,.01,.08,.05,.79,1.83,1.59,3.66,2.38,5.48,.13,.29,.26,.59,.38,.88,0,.02,.01,.03,.02,.06Z"/><path d="M204.08,236.07c-.18,.05-.34,.1-.51,.14-.27,.06-.56,.08-.84,.08-.85,0-1.71,0-2.56,0q-.08,0-.08-.07c0-1.54,0-3.08,0-4.62v-.07l1.82,2.08s-.04,0-.06,0c-.1,0-.19,0-.29,0-.04,0-.06,.01-.06,.06,0,.46,0,.92,0,1.37,0,.04,.01,.06,.06,.06,.42,0,.85,0,1.27,0,.09,0,.19-.02,.28-.04,.03,0,.05,0,.07,.02,.28,.33,.57,.65,.85,.98l.02,.03Z"/><path d="M192.78,232.13s.04,.02,.06,.03c.44,.28,.88,.56,1.32,.85,.04,.02,.05,.05,.05,.09,0,1.04,0,2.08,0,3.12,0,.06-.02,.07-.07,.07-.43,0-.86,0-1.28,0-.07,0-.07,0-.07-.07,0-1.34,0-2.68,0-4.03,0-.02,0-.03,0-.06Z"/><path d="M196.44,234.49s.03,.02,.04,.03c.44,.28,.89,.57,1.33,.85,.03,.02,.04,.04,.04,.08,0,.26,0,.52,0,.79,0,.05-.02,.06-.06,.06-.43,0-.87,0-1.3,0-.05,0-.06-.01-.06-.06,0-.56,0-1.13,0-1.69,0-.01,0-.03,0-.05Z"/><g><path class="cls-43" d="M213.15,233.39h.84c.56,0,.96,.17,.96,.66,0,.25-.15,.5-.47,.58v.02c.39,.07,.6,.28,.6,.64,0,.54-.43,.79-1.03,.79h-.91v-2.69Zm.79,1.11c.38,0,.53-.14,.53-.39s-.17-.34-.52-.34h-.33v.72h.32Zm.06,1.21c.39,0,.61-.14,.61-.44,0-.28-.2-.4-.61-.4h-.38v.84h.38Z"/><path class="cls-43" d="M216.22,233.39h.57l.87,2.69h-.51l-.4-1.43c-.08-.28-.17-.59-.24-.89h-.02c-.08,.3-.16,.6-.24,.89l-.41,1.43h-.49l.87-2.69Zm-.35,1.59h1.26v.38h-1.26v-.38Z"/><path class="cls-43" d="M218.04,233.39h.5l.71,1.51,.24,.58h.01c-.02-.28-.06-.62-.06-.92v-1.17h.46v2.69h-.5l-.71-1.51-.25-.57h-.01c.02,.29,.06,.61,.06,.91v1.18h-.46v-2.69Z"/><path class="cls-43" d="M220.54,233.39h.48v1.22h.01l.96-1.22h.54l-1.51,1.9v.8h-.48v-2.69Zm.82,1.32l.28-.38,.98,1.75h-.54l-.73-1.38Z"/></g><rect class="cls-66" x="192.76" y="237.86" width="19.15" height="2.01"/><path d="M194.27,231.84l-.5-.41c-.31-.26-.63-.52-.95-.77-.05-.04-.07-.08-.07-.14,0-.21,0-.42,0-.63,0-.05,.01-.07,.07-.07,.46,0,.92,0,1.39,0,.04,0,.06,0,.06,.05,0,.65,0,1.3,0,1.95v.03Z"/><text class="cls-57" transform="translate(186.81 217.85)"><tspan x="0" y="0">Mis </tspan><tspan class="cls-17" x="10.42" y="0">t</tspan><tspan x="12.54" y="0">a</tspan><tspan class="cls-74" x="15.72" y="0">r</tspan><tspan x="17.95" y="0">je</tspan><tspan class="cls-17" x="22.78" y="0">ta</tspan><tspan x="28.02" y="0">s</tspan></text><path class="cls-38" d="M185.78,293.39h62.38v3.67h-62.24c-1.05,0-1.9-.85-1.9-1.9h0c0-.98,.79-1.77,1.77-1.77Z"/><path class="cls-12" d="M245.62,293.49h43.94c.97,0,1.76,.79,1.76,1.76h0c0,.95-.77,1.72-1.72,1.72h-43.97v-3.48h0Z"/><text class="cls-32" transform="translate(184.84 304.85)"><tspan x="0" y="0">S</tspan><tspan class="cls-18" x="2.11" y="0">a</tspan><tspan class="cls-26" x="4.19" y="0">l</tspan><tspan class="cls-49" x="5.3" y="0">do disponib</tspan><tspan class="cls-72" x="26.38" y="0">l</tspan><tspan x="27.5" y="0">e</tspan></text><text class="cls-32" transform="translate(284.23 304.27)"><tspan x="0" y="0">30%</tspan></text><text class="cls-55" transform="translate(185.38 321.56)"><tspan x="0" y="0">Actividad </tspan><tspan class="cls-29" x="20.94" y="0">r</tspan><tspan x="22.63" y="0">ecien</tspan><tspan class="cls-80" x="33.99" y="0">t</tspan><tspan x="35.66" y="0">e</tspan></text><text class="cls-32" transform="translate(185.39 328.27)"><tspan x="0" y="0">15 de M</tspan><tspan class="cls-28" x="13.13" y="0">a</tspan><tspan class="cls-63" x="15.18" y="0">y</tspan><tspan x="17.08" y="0">o</tspan></text><line class="cls-13" x1="182.33" y1="332.73" x2="314.93" y2="332.73"/><rect class="cls-40" x="185.39" y="337.88" width="13.96" height="13.96" rx="6.98" ry="6.98"/><rect class="cls-40" x="185.39" y="356.98" width="13.96" height="13.96" rx="6.98" ry="6.98"/><rect class="cls-40" x="185.39" y="376.08" width="13.96" height="13.96" rx="6.98" ry="6.98"/><text class="cls-55" transform="translate(203.68 344.57)"><tspan class="cls-78" x="0" y="0">C</tspan><tspan x="2.55" y="0">o</tspan><tspan class="cls-80" x="5.27" y="0">t</tspan><tspan x="6.94" y="0">o</tspan></text><text class="cls-55" transform="translate(203.68 364.16)"><tspan class="cls-48" x="0" y="0">F</tspan><tspan x="2" y="0">armaci</tspan><tspan class="cls-25" x="16.41" y="0">t</tspan><tspan x="18.13" y="0">y</tspan></text><text class="cls-55" transform="translate(203.68 383.75)"><tspan x="0" y="0">Ot</tspan><tspan class="cls-29" x="4.96" y="0">r</tspan><tspan x="6.66" y="0">os</tspan></text><path class="cls-36" d="M317.33,232.43c.22,0,.41,0,.61,0,.19,0,.37-.04,.53-.13,.24-.14,.34-.35,.33-.62-.01-.27-.16-.44-.4-.54-.17-.07-.34-.09-.52-.09-.32,0-.63,0-.95,0-.05,0-.07,.02-.07,.07,0,.2,0,.4,0,.6v.06h-.01l-1.39-1.93h.07c.8,0,1.61,0,2.41,0,.41,0,.82,.04,1.22,.16,.31,.1,.58,.25,.78,.51,.14,.18,.23,.39,.26,.62,.05,.29,.05,.58-.05,.86-.13,.36-.38,.62-.71,.79-.09,.05-.18,.08-.28,.12-.01,0-.03,.01-.04,.03,.02,0,.04,.01,.05,.02,.48,.08,.88,.31,1.14,.73,.14,.22,.21,.47,.22,.73,.02,.31-.03,.6-.17,.88-.12,.23-.29,.42-.51,.57,0,0-.02,.01-.04,.02-.01-.02-.03-.03-.04-.05-.25-.35-.5-.69-.75-1.04-.02-.03-.02-.05,0-.08,.14-.26,.11-.58-.07-.78-.12-.13-.28-.19-.45-.23-.09-.02-.18-.03-.27-.05-.02,0-.04-.02-.05-.03-.25-.34-.49-.68-.74-1.03l-.11-.15Z"/><path class="cls-36" d="M313.2,234.75c-.12-.1-.23-.18-.33-.27-.35-.29-.7-.57-1.05-.86-.03-.03-.04-.05-.04-.09,0-.79,0-1.57,0-2.36q0-.08-.08-.08c-.53,0-1.06,0-1.59,0q-.07,0-.07-.07c0-.37,0-.75,0-1.12,0-.05,.02-.07,.07-.07,1.26,0,2.53,0,3.79,0,.04,0,.06,0,.09,.04,.35,.4,.7,.8,1.05,1.2v.02s-.03,0-.05,0c-.56,0-1.13,0-1.69,0q-.08,0-.08,.08c0,1.17,0,2.33,0,3.5v.08Z"/><path class="cls-36" d="M322.9,233.74h.07c.36,0,.73,0,1.09,0,.03,0,.05,0,.07,.03,.21,.38,.43,.75,.65,1.13,0,0,0,.02,.02,.04h-.07c-.74,0-1.48,0-2.21,0-.05,0-.08,.02-.1,.07-.16,.42-.33,.84-.49,1.26-.01,.03-.02,.05-.07,.05-.46,0-.91,0-1.37,0-.01,0-.02,0-.04,0l2.16-5.2s.02,.04,.03,.05c.24,.42,.48,.83,.72,1.25,.02,.04,.03,.07,0,.11-.15,.38-.3,.76-.45,1.14,0,.02-.01,.04-.02,.07Z"/><path class="cls-36" d="M327.24,236.31s-.04,0-.06,0c-.41,0-.83,0-1.24,0-.05,0-.07-.02-.09-.06-.73-1.77-1.46-3.53-2.2-5.3-.14-.35-.29-.69-.43-1.04,0-.02-.02-.04-.03-.07,.02,0,.04,0,.06,0,.37,0,.74,0,1.11,0,.04,0,.06,.01,.08,.05,.79,1.83,1.59,3.65,2.38,5.48,.13,.29,.26,.59,.38,.88,0,.02,.01,.03,.02,.06Z"/><path class="cls-36" d="M319.43,236.09c-.17,.05-.34,.1-.51,.14-.27,.06-.55,.08-.84,.08-.85,0-1.71,0-2.56,0q-.08,0-.08-.07c0-1.54,0-3.08,0-4.62v-.07l1.82,2.08s-.04,0-.06,0c-.1,0-.19,0-.29,0-.04,0-.06,.01-.06,.06,0,.46,0,.92,0,1.37,0,.04,.01,.06,.06,.06,.42,0,.85,0,1.27,0,.09,0,.19-.02,.28-.04,.03,0,.05,0,.07,.02,.28,.33,.57,.65,.85,.97l.02,.03Z"/><path class="cls-36" d="M308.12,232.16s.04,.02,.06,.03c.44,.28,.88,.56,1.32,.85,.04,.02,.05,.05,.05,.09,0,1.04,0,2.08,0,3.12,0,.06-.02,.07-.07,.07-.43,0-.86,0-1.28,0-.07,0-.07,0-.07-.07,0-1.34,0-2.68,0-4.02,0-.02,0-.03,0-.06Z"/><path class="cls-36" d="M311.79,234.51s.03,.02,.04,.03c.44,.28,.89,.57,1.33,.85,.03,.02,.04,.04,.04,.08,0,.26,0,.52,0,.78,0,.05-.02,.06-.06,.06-.43,0-.87,0-1.3,0-.05,0-.06-.01-.06-.06,0-.56,0-1.13,0-1.69,0-.01,0-.03,0-.05Z"/><rect class="cls-65" x="308.1" y="237.88" width="19.14" height="2.01"/><path class="cls-36" d="M309.62,231.87l-.5-.41c-.31-.26-.63-.52-.95-.77-.05-.04-.07-.08-.07-.14,0-.21,0-.42,0-.63,0-.05,.01-.07,.07-.07,.46,0,.92,0,1.39,0,.04,0,.06,0,.06,.05,0,.65,0,1.3,0,1.95v.03Z"/><rect class="cls-36" x="320.85" y="237.23" width="8.31" height="5.28"/><path class="cls-38" d="M301.13,292.81h19.72v3.67h-19.59c-1.05,0-1.9-.85-1.9-1.9h0c0-.98,.79-1.77,1.77-1.77Z"/><text class="cls-32" transform="translate(300.19 304.27)"><tspan x="0" y="0">S</tspan><tspan class="cls-18" x="2.11" y="0">a</tspan><tspan class="cls-26" x="4.19" y="0">l</tspan><tspan class="cls-49" x="5.3" y="0">do dispo</tspan></text><path d="M184.41,424.83c-.21,.22-.41,.44-.63,.66-.28,.28-.62,.29-.86,.04-.23-.24-.22-.57,.05-.84,2.53-2.53,5.07-5.06,7.61-7.58,.47-.47,1.14-.45,1.62,.02,.79,.78,1.57,1.57,2.36,2.35,.07,.07,.15,.14,.27,.26,0-.48,0-.9,0-1.31,0-.55,.19-.73,.75-.73,.3,0,.59,0,.89,0,.43,0,.65,.22,.65,.66,0,1.15,0,2.29,0,3.44,0,.14,.07,.32,.17,.42,.81,.83,1.64,1.63,2.45,2.47,.13,.13,.24,.37,.22,.55-.02,.16-.19,.34-.35,.44-.19,.13-.42,.05-.58-.11-.23-.24-.45-.49-.67-.74l-.1,.06v.3c0,1.85,0,3.71,0,5.56,0,1.15-.71,1.86-1.86,1.86-3.36,0-6.71,0-10.07,0-1.15,0-1.87-.71-1.87-1.86,0-1.85,0-3.69,0-5.54,0-.1,0-.21,0-.31l-.08-.06Zm6.98,6.62c1.69,0,3.37,0,5.06,0,.49,0,.7-.21,.7-.7,0-2.28,0-4.57,0-6.85,0-.14-.07-.32-.17-.42-1.78-1.79-3.58-3.57-5.36-5.36-.17-.17-.27-.17-.44,0-1.78,1.79-3.58,3.57-5.36,5.36-.1,.1-.17,.28-.17,.42-.01,2.28,0,4.55,0,6.83,0,.53,.2,.73,.73,.73,1.68,0,3.36,0,5.03,0Z"/><path d="M271.9,427.34c-.11-.11-.17-.18-.23-.25-1-1-2-2-2.99-3-.27-.27-.31-.48-.16-.72,.16-.26,.46-.33,.71-.16,.09,.06,.16,.13,.24,.21,1.31,1.31,2.62,2.62,3.93,3.92,.41,.41,.41,.63,0,1.04-1.31,1.31-2.62,2.62-3.93,3.92-.04,.04-.07,.08-.11,.11-.27,.25-.54,.26-.77,.03-.22-.21-.2-.49,.03-.75,.05-.05,.1-.1,.15-.15,.97-.97,1.93-1.93,2.9-2.9,.07-.07,.13-.14,.24-.25h-.36c-3.97,0-7.93,0-11.9,0-.11,0-.21,0-.32-.02-.26-.05-.45-.28-.44-.52,0-.23,.19-.45,.44-.49,.11-.02,.23-.02,.34-.02,3.95,0,7.9,0,11.84,0h.39Z"/><path d="M306.71,416.12c1.54,.02,2.84,.3,3.94,1.2,1.88,1.52,2.21,4.36,.66,6.22-.46,.55-1.07,.96-1.63,1.42-.36,.29-.77,.52-1.12,.82-.57,.46-.83,1.08-.86,1.81-.03,.8-.22,.98-1.01,.98-.26,0-.52,0-.79,0-.45-.02-.7-.26-.74-.71-.1-1.38,.29-2.56,1.4-3.45,.34-.27,.72-.5,1.07-.77,.42-.32,.88-.62,1.24-1.01,1.01-1.09,.83-2.88-.34-3.72-1.61-1.16-3.96-.42-4.56,1.45-.16,.51-.4,.69-.94,.69-.31,0-.62,0-.93,0-.49-.01-.76-.35-.67-.83,.4-2.18,2.09-3.76,4.3-4.01,.38-.04,.76-.06,.97-.08Z"/><path d="M227.23,416.76c2.21,0,4.03,1.8,4,4-.02,2.27-1.73,4-3.99,4.01-2.35,0-4-1.79-4.02-4.01-.02-2.19,1.8-4,4.01-4Zm2.69,4.03c0-1.48-1.19-2.69-2.68-2.7-1.48-.01-2.7,1.18-2.71,2.66-.01,1.46,1.22,2.69,2.69,2.68,1.46,0,2.69-1.21,2.69-2.65Z"/><path d="M260.69,420.99c.11,.11,.17,.19,.23,.25,1,1,2,2,2.99,3,.31,.31,.33,.62,.06,.84-.19,.16-.4,.18-.61,.04-.09-.06-.16-.13-.24-.21-1.31-1.31-2.62-2.62-3.93-3.92-.41-.41-.41-.63,0-1.04,1.32-1.32,2.65-2.64,3.97-3.96,.17-.17,.35-.33,.63-.24,.33,.11,.47,.47,.28,.76-.06,.09-.13,.16-.21,.24-.98,.98-1.96,1.96-2.94,2.94-.07,.07-.13,.14-.24,.25h.36c3.96,0,7.91,0,11.87,0,.1,0,.2,0,.29,0,.29,.04,.5,.27,.5,.53,0,.26-.23,.48-.52,.51-.09,0-.18,0-.26,0-3.95,0-7.9,0-11.84,0h-.39Z"/><polyline class="cls-1" points="330.54 141.38 319.36 128.96 274.89 128.96"/><path class="cls-5" d="M315.57,60.43H178.74c-14.62,0-26.48,11.86-26.48,26.48V417.93c0,14.62,11.86,26.48,26.48,26.48h136.84c14.62,0,26.48-11.86,26.48-26.48V86.91c0-14.62-11.86-26.48-26.48-26.48Zm19.25,349.16c0,14.62-11.86,26.48-26.48,26.48h-122.83c-14.62,0-26.48-11.86-26.48-26.48V95.03c0-14.62,11.86-26.48,26.48-26.48h122.83c14.62,0,26.48,11.86,26.48,26.48V409.59Z"/><g><path d="M234.56,94.21c.44,0,.85,0,1.26,0,.38,0,.76-.08,1.1-.27,.5-.28,.7-.73,.67-1.28-.03-.55-.33-.9-.83-1.11-.34-.14-.71-.19-1.07-.19-.65,0-1.3,0-1.95,0-.11,0-.13,.04-.13,.14,0,.41,0,.83,0,1.24v.12h-.02l-2.85-3.95h.14c1.65,0,3.29,0,4.94,0,.85,0,1.69,.07,2.5,.33,.63,.2,1.18,.51,1.59,1.04,.29,.37,.46,.8,.54,1.27,.1,.59,.1,1.18-.11,1.76-.26,.74-.77,1.27-1.46,1.62-.18,.09-.38,.16-.57,.24-.03,.01-.06,.03-.09,.06,.04,.01,.07,.03,.11,.03,.99,.17,1.8,.63,2.34,1.5,.28,.46,.42,.96,.45,1.5,.04,.63-.06,1.24-.35,1.81-.24,.48-.6,.86-1.04,1.16-.02,.01-.04,.03-.07,.04-.03-.04-.06-.07-.08-.1-.51-.71-1.02-1.42-1.53-2.13-.04-.06-.05-.1-.01-.17,.29-.53,.23-1.19-.15-1.6-.25-.27-.58-.4-.92-.48-.18-.04-.36-.06-.54-.09-.04,0-.08-.04-.11-.07-.51-.7-1.01-1.4-1.52-2.11l-.22-.31Z"/><path d="M226.09,98.98c-.24-.2-.46-.38-.68-.56-.71-.59-1.43-1.17-2.14-1.76-.06-.05-.09-.1-.09-.18,0-1.61,0-3.23,0-4.84q0-.17-.16-.17c-1.08,0-2.17,0-3.25,0q-.15,0-.15-.15c0-.77,0-1.53,0-2.3,0-.11,.03-.13,.14-.13,2.59,0,5.18,0,7.77,0,.07,0,.13,.02,.18,.07,.71,.82,1.43,1.64,2.15,2.46,0,0,0,.01,.02,.04-.05,0-.09,0-.13,0-1.16,0-2.31,0-3.47,0q-.17,0-.17,.17c0,2.39,0,4.78,0,7.17v.17Z"/><path d="M245.97,96.89h.15c.75,0,1.49,0,2.24,0,.06,0,.11,0,.14,.07,.44,.77,.88,1.55,1.33,2.32,.01,.02,.02,.04,.04,.08h-.14c-1.51,0-3.03,0-4.54,0-.11,0-.16,.03-.2,.13-.33,.86-.67,1.72-1.01,2.58-.03,.06-.05,.11-.14,.11-.94,0-1.87,0-2.81,0-.02,0-.04,0-.09,0l4.43-10.66s.05,.08,.07,.11c.49,.86,.98,1.71,1.47,2.57,.05,.08,.05,.14,.02,.23-.31,.78-.61,1.56-.91,2.33-.02,.04-.03,.08-.05,.14Z"/><path d="M254.88,102.17c-.05,0-.09,0-.12,0-.85,0-1.7,0-2.55,0-.1,0-.14-.04-.18-.13-1.5-3.62-3-7.25-4.51-10.87-.3-.71-.59-1.42-.89-2.14-.02-.04-.03-.09-.06-.14,.05,0,.09,0,.13,0,.76,0,1.52,0,2.29,0,.09,0,.13,.03,.16,.11,1.63,3.75,3.26,7.49,4.89,11.24,.26,.6,.53,1.21,.79,1.81,.02,.04,.03,.07,.05,.12Z"/><path d="M238.85,101.73c-.36,.1-.7,.2-1.04,.28-.56,.13-1.14,.17-1.72,.16-1.75,0-3.5,0-5.25,0q-.15,0-.15-.15c0-3.16,0-6.32,0-9.48v-.15l3.73,4.26c-.05,0-.09,0-.12,0-.2,0-.39,0-.59,0-.09,0-.11,.03-.11,.11,0,.94,0,1.88,0,2.82,0,.09,.03,.12,.12,.12,.87,0,1.74,0,2.61,0,.19,0,.39-.05,.58-.08,.05,0,.1-.02,.14,.03,.58,.67,1.16,1.33,1.75,2,0,0,.01,.02,.04,.06Z"/><path d="M215.67,93.65s.08,.05,.11,.07c.9,.58,1.8,1.16,2.7,1.73,.07,.05,.1,.1,.1,.18,0,2.13,0,4.27,0,6.4,0,.11-.03,.14-.14,.14-.88,0-1.76,0-2.63,0-.14,0-.14,0-.14-.15,0-2.75,0-5.5,0-8.25,0-.04,0-.07,0-.12Z"/><path d="M223.18,98.48s.06,.03,.09,.05c.91,.58,1.82,1.17,2.73,1.75,.06,.04,.09,.08,.09,.16,0,.54,0,1.07,0,1.61,0,.1-.03,.12-.12,.12-.89,0-1.78,0-2.67,0-.09,0-.12-.03-.12-.12,0-1.16,0-2.31,0-3.47,0-.03,0-.06,0-.1Z"/><path d="M218.57,92.8c-.33-.27-.65-.53-.96-.79-.61-.5-1.21-1-1.82-1.49-.09-.08-.13-.15-.13-.27,0-.41,0-.81,0-1.22,0-.1,.03-.14,.13-.14,.89,0,1.78,0,2.67,0,.07,0,.12,0,.12,.1,0,1.25,0,2.49,0,3.74,0,.01,0,.03,0,.06Z"/><rect class="cls-67" x="215.63" y="104.5" width="65.06" height="4.13"/><g><polygon points="255.72 92.96 255.72 102.24 258.39 102.24 258.39 96.02 255.72 92.96"/><polygon points="264.46 88.88 264.46 98.06 258.39 88.88 255.78 88.88 264.19 101.84 264.46 102.24 267.13 102.24 267.13 88.88 264.46 88.88"/></g><g><polygon points="272.45 96.34 272.45 96.3 275.3 99.79 277.33 102.24 280.69 102.24 275.03 95.51 280.54 88.9 277.3 88.9 272.45 94.88 272.45 88.9 269.77 88.9 269.77 93.1 272.45 96.34"/><polygon points="269.77 96.52 269.77 102.24 272.45 102.24 272.45 98.92 269.77 96.52"/></g></g><path d="M204.54,68.24h86.91v1.14c0,6.38-5.18,11.56-11.56,11.56h-63.78c-6.38,0-11.56-5.18-11.56-11.56v-1.14h0Z"/><rect class="cls-70" x="251.45" y="134.85" width="150.75" height="117.46" rx="15.37" ry="15.37"/><text class="cls-53" transform="translate(269.98 152.25)"><tspan x="0" y="0">G</tspan><tspan class="cls-22" x="5.46" y="0">a</tspan><tspan x="10.05" y="0">s</tspan><tspan class="cls-79" x="14.13" y="0">t</tspan><tspan x="17.2" y="0">os por </tspan><tspan class="cls-75" x="44.03" y="0">c</tspan><tspan x="48.04" y="0">a</tspan><tspan class="cls-79" x="52.72" y="0">t</tspan><tspan x="55.78" y="0">e</tspan><tspan class="cls-73" x="60.49" y="0">g</tspan><tspan x="64.92" y="0">oría</tspan></text><path class="cls-42" d="M304.63,157.63c13.73,0,26.62,6.59,34.66,17.72,8.04,11.13,10.25,25.44,5.93,38.48l-40.6-13.44v-42.76Z"/><path class="cls-42" d="M345.23,213.83c-4.9,14.8-17.46,25.76-32.79,28.61l-7.8-42.04,40.6,13.44Z"/><path class="cls-35" d="M302.21,157.7c.8-.05,1.61-.07,2.42-.07v42.76l-2.42-42.69Z"/><path class="cls-35" d="M291.04,159.85c3.61-1.21,7.37-1.93,11.18-2.15l2.42,42.69-13.59-40.54Z"/><path class="cls-41" d="M272.62,172.04c4.97-5.61,11.32-9.81,18.42-12.19l13.59,40.54-32.01-28.35Z"/><path class="cls-41" d="M261.98,197.4c.66-9.39,4.4-18.31,10.65-25.36l32.01,28.35-42.66-3Z"/><path class="cls-39" d="M272.74,228.88c-7.69-8.61-11.57-19.96-10.76-31.48l42.66,3-31.89,28.48Z"/><path class="cls-39" d="M312.43,242.44c-14.69,2.73-29.74-2.41-39.7-13.56l31.89-28.48,7.8,42.04Z"/><circle class="cls-37" cx="304.63" cy="200.4" r="27.64"/><rect class="cls-42" x="361.88" y="172.75" width="7.36" height="3.57"/><text class="cls-56" transform="translate(371.88 176.34)"><tspan x="0" y="0">Ocio</tspan></text><rect class="cls-39" x="361.47" y="185.92" width="7.36" height="3.57"/><text class="cls-56" transform="translate(371.48 189.5)"><tspan x="0" y="0">Servicios</tspan></text><rect class="cls-41" x="361.47" y="199.43" width="7.36" height="3.57"/><text class="cls-56" transform="translate(371.48 203.02)"><tspan class="cls-77" x="0" y="0">C</tspan><tspan x="2.74" y="0">omida</tspan></text><rect class="cls-35" x="361.47" y="211.64" width="7.36" height="3.57"/><text class="cls-56" transform="translate(371.48 215.23)"><tspan x="0" y="0">Ot</tspan><tspan class="cls-46" x="5.33" y="0">r</tspan><tspan x="7.14" y="0">os</tspan></text><rect class="cls-70" x="50.19" y="135.95" width="191.63" height="115.27" rx="13.98" ry="13.98"/><line class="cls-10" x1="76.27" y1="163.93" x2="76.27" y2="228.98"/><line class="cls-10" x1="223.92" y1="228.98" x2="76.11" y2="228.98"/><text class="cls-59" transform="translate(64.18 217.99)"><tspan x="0" y="0">10000</tspan></text><line class="cls-7" x1="223.92" y1="228.98" x2="223.92" y2="163.93"/><line class="cls-7" x1="90.79" y1="228.98" x2="90.79" y2="163.93"/><line class="cls-7" x1="105.32" y1="228.98" x2="105.32" y2="163.93"/><line class="cls-7" x1="119.76" y1="228.98" x2="119.76" y2="163.93"/><line class="cls-7" x1="194.82" y1="228.98" x2="194.82" y2="163.93"/><line class="cls-7" x1="134.09" y1="228.98" x2="134.09" y2="163.93"/><line class="cls-7" x1="149" y1="228.98" x2="149" y2="163.93"/><line class="cls-7" x1="164.47" y1="228.98" x2="164.47" y2="163.93"/><line class="cls-7" x1="179.65" y1="228.98" x2="179.65" y2="163.93"/><line class="cls-7" x1="209.98" y1="228.98" x2="209.98" y2="163.93"/><line class="cls-7" x1="76.53" y1="215.97" x2="223.92" y2="215.97"/><line class="cls-7" x1="76.53" y1="202.96" x2="223.92" y2="202.96"/><line class="cls-7" x1="76.27" y1="189.95" x2="223.66" y2="189.95"/><line class="cls-7" x1="76.53" y1="176.94" x2="223.92" y2="176.94"/><line class="cls-7" x1="76.79" y1="163.93" x2="223.92" y2="163.93"/><text class="cls-59" transform="translate(64.47 204.26)"><tspan x="0" y="0">50000</tspan></text><text class="cls-59" transform="translate(63.02 191.27)"><tspan x="0" y="0">100000</tspan></text><text class="cls-59" transform="translate(63.31 177.97)"><tspan x="0" y="0">150000</tspan></text><polyline class="cls-11" points="76.83 215.82 102.49 200.85 131.58 215.82 155.96 192.3 194.45 200.42 223.96 187.59"/><polyline class="cls-11" points="77.27 209.89 102.49 200.85 129.88 207.15 156.57 196.03 194.53 201.67"/><text class="cls-59" transform="translate(86.98 235.17)"><tspan class="cls-14" x="0" y="0">E</tspan><tspan x="1.61" y="0">ne</tspan><tspan class="cls-45" x="5.19" y="0">r</tspan><tspan class="cls-61" x="6.29" y="0">o</tspan></text><text class="cls-59" transform="translate(116.26 235.2)"><tspan class="cls-50" x="0" y="0">F</tspan><tspan class="cls-60" x="1.43" y="0">eb</tspan><tspan class="cls-45" x="5" y="0">r</tspan><tspan x="6.1" y="0">e</tspan><tspan class="cls-45" x="7.82" y="0">r</tspan><tspan x="8.91" y="0">o</tspan></text><text class="cls-59" transform="translate(143.5 235.17)"><tspan x="0" y="0">Ma</tspan><tspan class="cls-14" x="4.18" y="0">r</tspan><tspan class="cls-19" x="5.34" y="0">z</tspan><tspan x="6.67" y="0">o</tspan></text><text class="cls-59" transform="translate(175.89 235.24)"><tspan x="0" y="0">Abril</tspan></text><text class="cls-59" transform="translate(207.02 235.27)"><tspan x="0" y="0">M</tspan><tspan class="cls-34" x="2.46" y="0">a</tspan><tspan class="cls-76" x="4.13" y="0">y</tspan><tspan x="5.62" y="0">o</tspan></text><text class="cls-54" transform="translate(76.53 155.07)"><tspan x="0" y="0">B</tspan><tspan class="cls-20" x="4.71" y="0">a</tspan><tspan class="cls-81" x="8.82" y="0">l</tspan><tspan x="11.05" y="0">an</tspan><tspan class="cls-21" x="19.71" y="0">c</tspan><tspan x="23.23" y="0">e anu</tspan><tspan class="cls-20" x="42.45" y="0">a</tspan><tspan x="46.57" y="0">l</tspan></text><text class="cls-52" transform="translate(198.66 154.42)"><tspan x="0" y="0">año an</tspan><tspan class="cls-82" x="13.84" y="0">t</tspan><tspan x="15.44" y="0">erior</tspan></text><line class="cls-6" x1="198.82" y1="155.59" x2="223.66" y2="155.59"/><rect class="cls-84" x="43.12" y="263.3" width="98.34" height="91.25" rx="16.77" ry="16.77"/><text class="cls-30" transform="translate(54.48 307.91)"><tspan x="0" y="0">$3000</tspan></text><text class="cls-31" transform="translate(54.48 321.41)"><tspan class="cls-83" x="0" y="0">C</tspan><tspan x="4.6" y="0">uen</tspan><tspan class="cls-68" x="19.11" y="0">t</tspan><tspan x="22.11" y="0">a </tspan><tspan class="cls-23" x="28.96" y="0">c</tspan><tspan x="32.84" y="0">orrien</tspan><tspan class="cls-27" x="56.3" y="0">t</tspan><tspan x="59.23" y="0">e</tspan></text><text class="cls-58" transform="translate(54.48 281.45)"><tspan x="0" y="0">Mis </tspan><tspan class="cls-15" x="16.25" y="0">sa</tspan><tspan class="cls-71" x="25.34" y="0">l</tspan><tspan x="27.97" y="0">dos</tspan></text><line class="cls-13" x1="55.31" y1="332.33" x2="128.28" y2="332.33"/><polyline class="cls-2" points="62.74 384.84 24.28 350.22 24.28 212.51"/><line class="cls-4" x1="81.23" y1="392.09" x2="94.91" y2="377.59"/><line class="cls-3" x1="81.23" y1="377.59" x2="94.91" y2="392.09"/><rect class="cls-64" x="202.59" y="458.95" width="102.84" height="10"/><rect class="cls-43" x="349.32" y="458.95" width="33.26" height="10"/><line class="cls-9" x1="354.63" y1="125.04" x2="368.31" y2="110.54"/><line class="cls-8" x1="354.63" y1="110.54" x2="368.31" y2="125.04"/></svg>